<svg id="visual" viewBox="0 0 900 450" width="900" height="450" xmlns="http://www.w3.org/2000/svg" xmlns:xlink="http://www.w3.org/1999/xlink" version="1.1"><rect x="0" y="0" width="900" height="450" fill="#67595E"></rect><path d="M0 299L25 302C50 305 100 311 150 315C200 319 250 321 300 309.2C350 297.3 400 271.7 450 260.3C500 249 550 252 600 257.5C650 263 700 271 750 271.2C800 271.3 850 263.7 875 259.8L900 256L900 451L875 451C850 451 800 451 750 451C700 451 650 451 600 451C550 451 500 451 450 451C400 451 350 451 300 451C250 451 200 451 150 451C100 451 50 451 25 451L0 451Z" fill="#a49393"></path><path d="M0 300L25 309.5C50 319 100 338 150 344C200 350 250 343 300 335.5C350 328 400 320 450 325.7C500 331.3 550 350.7 600 347.3C650 344 700 318 750 306.7C800 295.3 850 298.7 875 300.3L900 302L900 451L875 451C850 451 800 451 750 451C700 451 650 451 600 451C550 451 500 451 450 451C400 451 350 451 300 451C250 451 200 451 150 451C100 451 50 451 25 451L0 451Z" fill="#c8b4b3"></path><path d="M0 359L25 359.2C50 359.3 100 359.7 150 363.3C200 367 250 374 300 385.5C350 397 400 413 450 418.5C500 424 550 419 600 411.5C650 404 700 394 750 396.3C800 398.7 850 413.3 875 420.7L900 428L900 451L875 451C850 451 800 451 750 451C700 451 650 451 600 451C550 451 500 451 450 451C400 451 350 451 300 451C250 451 200 451 150 451C100 451 50 451 25 451L0 451Z" fill="#eed6d3"></path></svg>
